<svg id="Layer_1" data-name="Layer 1" xmlns="http://www.w3.org/2000/svg" viewBox="0 0 526.43 93.12"><defs><style>.cls-1{fill:#429f44;}.cls-2{fill:#8dc63f;}.cls-3{fill:#0563ac;}.cls-4{fill:#ffc20e;}.cls-5{fill:#f58220;}.cls-6{fill:#00aeef;}.cls-7{fill:#a7a9ac;}.cls-8{fill:#231f20;}</style></defs><title>Logo</title><polygon class="cls-1" points="76.92 18.6 89.88 26.06 76.92 33.67 76.92 18.6"/><polygon class="cls-2" points="74.8 18.6 74.8 33.67 61.84 26.06 74.8 18.6"/><polygon class="cls-2" points="45.78 16.91 58.74 9.3 58.74 24.37 45.78 16.91"/><polygon class="cls-1" points="91.01 27.89 91.01 42.83 77.9 35.36 91.01 27.89"/><polygon class="cls-2" points="90.02 63.25 76.92 70.72 76.92 55.65 90.02 63.25"/><polygon class="cls-1" points="91.01 46.49 91.01 61.42 78.05 53.95 91.01 46.49"/><polygon class="cls-2" points="89.88 44.66 76.92 52.12 76.92 37.05 89.88 44.66"/><polygon class="cls-1" points="60.86 9.3 73.82 16.91 60.86 24.37 60.86 9.3"/><polygon class="cls-3" points="92.98 9.3 105.94 16.76 92.98 24.37 92.98 9.3"/><polygon class="cls-3" points="107.07 18.6 107.07 33.67 93.96 26.06 107.07 18.6"/><polygon class="cls-3" points="107.07 37.19 107.07 52.12 94.11 44.66 107.07 37.19"/><polygon class="cls-3" points="76.92 0 89.88 7.61 76.92 15.07 76.92 0"/><path class="cls-4" d="M10,52,3.52,55.65,1.41,52.12l6.48-3.8Z"/><path class="cls-4" d="M21.84,54.66,11,60.86,9,57.34l10.7-6.2Z"/><path class="cls-4" d="M15.5,67.9,2.11,75.65,0,72l13.52-7.75Z"/><path class="cls-4" d="M20.71,74.52l-10,5.78L8.59,76.64l10.15-5.78Z"/><path class="cls-4" d="M33.53,76.64l-9,5.21L22.4,78.33l9-5.22Z"/><path class="cls-4" d="M31.84,87.2,21.7,93.12l-2-3.66,10-5.78Z"/><path class="cls-4" d="M53,84.53,43,90.44l-2.12-3.66L51,81Z"/><path class="cls-4" d="M23.53,34.51l-6.91,4-2.11-3.52,7-4.09Z"/><path class="cls-5" d="M74.8,36.2,43.81,18,25.22,28.74l2.11,3.66,6.06-3.52,2,3.52L31.7,34.51,10.56,46.77l2.12,3.66L37.47,36.06l4.79-2.81,2.12,3.66-4.79,2.68L23.1,49.17l2,3.66L41.7,43.25l2,3.66-15.5,8.88,2.12,3.66L39.73,54l2.11,3.52c-16.91,9.72-3.52,2-20.29,11.69l2,3.66L53.25,55.65l2.11,3.66-4.93,2.82h-.14L34.94,71l2.11,3.66,10.42-6,2.12-1.27L51.7,71,33.25,81.57l2.11,3.66L58.18,72l2.11,3.66-6,3.38,2.11,3.66L75.09,71.85Zm-7.18,6.35L60,47.05,57.9,43.39,65.65,39ZM66.07,53.11,58.6,57.34l-2-3.52L64,49.45ZM51.14,28.18l2,3.66-4.93,2.81-2.11-3.52Zm5.07,6.62,2,3.66-11,6.34-2.11-3.52ZM38.46,30.71l-2-3.66,6-3.52,2.12,3.52Zm6.76,24.8-2-3.53L54,45.64l2.11,3.67ZM55.65,68.75l-2.12-3.66,10-5.78L65.65,63Zm8.17,4.79L61.7,70l7.47-4.37,2.11,3.52Z"/><path class="cls-4" d="M26.34,61.56l-7.46,4.37-2.12-3.52L24.37,58Z"/><polygon class="cls-6" points="90.86 9.3 90.86 24.37 77.9 16.91 90.86 9.3"/><polygon class="cls-6" points="61.84 7.61 74.8 0 74.8 15.07 61.84 7.61"/><polygon class="cls-6" points="106.08 53.95 93.12 61.42 93.12 46.49 106.08 53.95"/><polygon class="cls-6" points="105.94 35.36 92.98 42.83 92.98 27.89 105.94 35.36"/><path class="cls-7" d="M200.55,65.8l2.22,7.46h0l2.47-7.46h1.3l2.51,7.46h0l2.2-7.46h1.41L209.84,75h-1.46l-2.45-7.44h0L203.48,75H202l-2.91-9.19Z"/><path class="cls-7" d="M221.08,65.8l2.22,7.46h0l2.48-7.46h1.29l2.52,7.46h0l2.2-7.46h1.41L230.37,75h-1.45l-2.45-7.44h0L224,75h-1.45l-2.91-9.19Z"/><path class="cls-7" d="M241.62,65.8l2.22,7.46h0l2.47-7.46h1.3l2.51,7.46h0l2.2-7.46h1.41L250.91,75h-1.45L247,67.55h0L244.55,75h-1.46l-2.9-9.19Z"/><path class="cls-7" d="M262.06,75.11a1.06,1.06,0,1,1,1.06-1.06A1.05,1.05,0,0,1,262.06,75.11Z"/><path class="cls-7" d="M276.41,66.92h-2.59v5.36c0,1.37.57,1.69,1.37,1.69a2.67,2.67,0,0,0,1.16-.3l.06,1.16a4.23,4.23,0,0,1-1.57.28,2.2,2.2,0,0,1-2.36-2.46V66.92h-1.9V65.8h1.9V63.2h1.34v2.6h2.59Z"/><path class="cls-7" d="M292.73,70.75h-7.62a3.35,3.35,0,0,0,3.35,3.33,3.47,3.47,0,0,0,3-1.59l1,.79a4.8,4.8,0,0,1-4,1.94,4.83,4.83,0,0,1-.11-9.66,4.22,4.22,0,0,1,4.4,4.56C292.75,70.29,292.75,70.51,292.73,70.75Zm-1.34-1.06a2.9,2.9,0,0,0-3-3,3.24,3.24,0,0,0-3.22,3Z"/><path class="cls-7" d="M308.12,67.9a2.8,2.8,0,0,0-2.36-1.22,3.71,3.71,0,0,0,0,7.4,3,3,0,0,0,2.49-1.19l1,.74a4.27,4.27,0,0,1-3.5,1.59,4.83,4.83,0,1,1,0-9.66,4.34,4.34,0,0,1,3.42,1.59Z"/><path class="cls-7" d="M318.62,67.31a3.42,3.42,0,0,1,3.08-1.75c2.34,0,3.5,1.51,3.5,3.79V75h-1.34V69.9c0-1.92-.57-3.22-2.49-3.22-1.42,0-2.79,1.14-2.79,3.59V75h-1.34V60.14h1.34v7.17Z"/><path class="cls-7" d="M334.72,65.8l2.22,7.46h0l2.47-7.46h1.3l2.51,7.46h0l2.2-7.46h1.41L344,75h-1.46l-2.45-7.44h0L337.64,75h-1.45l-2.91-9.19Z"/><path class="cls-7" d="M360.87,69.06a2.15,2.15,0,0,0-2.46-2.38,3.92,3.92,0,0,0-2.73,1.08l-.74-.88a5.12,5.12,0,0,1,3.61-1.32c2,0,3.58,1.1,3.58,3.34v4a12.49,12.49,0,0,0,.15,2.06h-1.2A10.2,10.2,0,0,1,361,73.5h0a3.72,3.72,0,0,1-3.34,1.72c-1.39,0-3.18-.74-3.18-2.79,0-2.82,3.12-3.08,6.48-3.08Zm-.39,1.33c-2.18,0-4.72.24-4.72,2,0,1.31,1.12,1.75,2.16,1.75a2.87,2.87,0,0,0,2.95-3v-.69Z"/><path class="cls-7" d="M371.37,65.8h1.28c0,.49.08,1.18.08,1.57h0a3.3,3.3,0,0,1,2.95-1.81,3.15,3.15,0,0,1,.89.1l-.18,1.26a3.52,3.52,0,0,0-.94-.12c-1.42,0-2.69,1-2.69,3.47V75h-1.34V67.82C371.45,67.33,371.43,66.43,371.37,65.8Z"/><path class="cls-7" d="M388.14,75.22a4.83,4.83,0,0,1,0-9.66,4.15,4.15,0,0,1,3.47,1.83h0V60.14H393V75h-1.34V73.44h0A4.2,4.2,0,0,1,388.14,75.22Zm.14-1.14a3.7,3.7,0,0,0,0-7.4,3.71,3.71,0,0,0,0,7.4Z"/><path class="cls-7" d="M407.34,68a2.49,2.49,0,0,0-2.26-1.3c-1,0-1.94.41-1.94,1.43s.68,1.26,2.2,1.58c2.16.45,3.18,1.25,3.18,2.69,0,2.1-1.77,2.84-3.46,2.84a4.3,4.3,0,0,1-3.63-1.78l1.06-.79A3,3,0,0,0,405,74.08c1.14,0,2.16-.41,2.16-1.61,0-1-1-1.35-2.71-1.76-1.08-.26-2.63-.73-2.63-2.48s1.61-2.67,3.28-2.67a3.75,3.75,0,0,1,3.22,1.65Z"/><path class="cls-7" d="M417.84,75.11a1.06,1.06,0,1,1,1.06-1.06A1.05,1.05,0,0,1,417.84,75.11Z"/><path class="cls-7" d="M434.67,67.9a2.8,2.8,0,0,0-2.36-1.22,3.71,3.71,0,0,0,0,7.4,3,3,0,0,0,2.5-1.19l1,.74a4.27,4.27,0,0,1-3.5,1.59,4.83,4.83,0,1,1,0-9.66,4.34,4.34,0,0,1,3.42,1.59Z"/><path class="cls-7" d="M448,75.22a4.83,4.83,0,1,1,4.91-4.83A4.71,4.71,0,0,1,448,75.22Zm0-8.54a3.71,3.71,0,1,0,3.49,3.71A3.47,3.47,0,0,0,448,66.68Z"/><polygon class="cls-8" points="124.43 26.21 139.98 26.21 139.98 51.94 145.7 51.94 145.7 26.21 161.25 26.21 161.25 20.93 124.43 20.93 124.43 26.21"/><path class="cls-8" d="M163.11,36.44c0,10.72,4.57,15.5,14.8,15.5H202.1V46.4H177.91c-5.93,0-8.48-2.06-8.95-7.32h32.52V33.84H169c.47-5.25,3.1-7.41,8.95-7.41H202.1v-5.5H177.91C167.68,20.93,163.11,25.71,163.11,36.44Z"/><path class="cls-8" d="M206.38,36.44c0,10.72,4.57,15.5,14.8,15.5h24.19V46.31H221.18c-7.52,0-9-3.47-9-9.87s1.43-9.92,9-9.92h24.19V20.93H221.18C211,20.93,206.38,25.71,206.38,36.44Z"/><polygon class="cls-8" points="282.91 33.8 256.47 33.8 256.47 20.93 250.71 20.93 250.71 51.94 256.47 51.94 256.47 39.03 282.91 39.03 282.91 51.94 288.63 51.94 288.63 20.93 282.91 20.93 282.91 33.8"/><path class="cls-8" d="M349,20.93,338.82,44c-1.09,2.44-2.22,2.92-3.79,2.92-1.88,0-2.92-.71-3.83-2.62l-4.14-8.45,7.26-14.93h-5.91L324,30.1l-4.44-9.17h-5.86l7.22,14.93L316.8,44.3c-.95,1.89-2,2.63-3.88,2.63-1.59,0-2.65-.47-3.75-2.91L298.92,20.93h-6.11L304,46.13c1.85,4.15,4.86,6.25,8.95,6.25a9.26,9.26,0,0,0,8.85-5.71L324,42.2l2.17,4.47A9.35,9.35,0,0,0,335,52.38c4.09,0,7.1-2.1,8.95-6.25l11.19-25.2Z"/><path class="cls-8" d="M373.85,20.54c-5.36,0-7.65,3.14-9.33,6.54L352.08,51.94h6.18l4.1-8.19h23l4.1,8.19h6.17L383.23,27.07C381.24,23.15,378.89,20.54,373.85,20.54Zm-8.85,18,5.06-10.08c1-1.95,2.07-2.75,3.79-2.75s2.85.77,3.84,2.75l5,10.08Z"/><path class="cls-8" d="M438,30.58c0-6-4.43-9.65-11.85-9.65H399.72v31h5.72V41.32H426c4.86,0,5.38,3,5.38,4.33v6.29h5.9V45.73a7.25,7.25,0,0,0-4.79-7A8.17,8.17,0,0,0,438,30.58Zm-5.85.53c0,2.43-1.49,5-5.65,5H405.44v-10H426.5C431.74,26.12,432.15,29.94,432.15,31.11Z"/><path class="cls-8" d="M468.89,20.93h-25v31h25c10.24,0,14.8-4.78,14.8-15.5S479.13,20.93,468.89,20.93Zm0,25.38h-19.3V26.52h19.3c7.52,0,8.95,3.48,8.95,9.92S476.41,46.31,468.89,46.31Z"/><path class="cls-8" d="M514.66,34.06l-14.23-1.14c-5.35-.41-6.43-1.65-6.43-3.53,0-2.17,1.65-3.22,5-3.22h25.33V20.93H499.47c-7.17,0-11.28,3.13-11.28,8.59,0,5.26,3.58,8.1,10.94,8.67l14.75,1.19c5.86.47,6.65,2.23,6.65,3.89,0,.85,0,3.44-5.64,3.44H487.84v5.23h26.74c7.64,0,11.85-3.14,11.85-8.85C526.43,35.85,519.71,34.47,514.66,34.06Z"/></svg>